<svg width="193" height="83" viewBox="0 0 193 83" fill="none" xmlns="http://www.w3.org/2000/svg">
<g id="Vector">
<path d="M176.36 78.8665H167.527C167.185 78.8665 167.013 78.6462 167.013 78.2057V53.9557H152.069C151.658 53.9557 151.452 53.7355 151.452 53.295V42.5906C151.452 42.5025 151.504 42.3483 151.606 42.1281C151.709 41.9078 151.863 41.7977 152.069 41.7977H167.013V17.1512C167.013 16.975 167.185 16.8869 167.527 16.8869H176.36C176.669 16.8869 176.823 16.975 176.823 17.1512V41.7977H192.487C192.829 41.7977 193 42.062 193 42.5906V53.295C193 53.7355 192.829 53.9557 192.487 53.9557H176.823V78.2057C176.823 78.6462 176.669 78.8665 176.36 78.8665Z" fill="url(#paint0_linear_1_295)"/>
<path d="M122.487 97.5C118.036 97.5 114.081 96.2666 110.623 93.7997C107.2 91.3329 104.512 88.0511 102.56 83.9544C100.643 79.8136 99.6843 75.2763 99.6843 70.3426L99.787 27.4591C99.787 22.4373 100.763 17.9221 102.714 13.9135C104.632 9.86081 107.302 6.62307 110.726 4.20027C114.15 1.73342 118.07 0.5 122.487 0.5C127.006 0.5 130.944 1.7114 134.299 4.1342C137.654 6.55699 140.291 9.81676 142.208 13.9135C144.16 17.9662 145.135 22.4814 145.135 27.4591L145.238 70.3426C145.238 75.2323 144.279 79.7475 142.362 83.8883C140.41 88.0291 137.723 91.3329 134.299 93.7997C130.909 96.2666 126.972 97.5 122.487 97.5ZM132.501 70.3426L132.399 27.4591C132.399 24.2875 131.474 21.7105 129.625 19.7282C127.811 17.7459 125.431 16.7548 122.487 16.7548C119.474 16.7548 117.06 17.7459 115.245 19.7282C113.431 21.7105 112.524 24.2875 112.524 27.4591V70.3426C112.524 73.6905 113.431 76.3336 115.245 78.2718C117.06 80.21 119.474 81.1792 122.487 81.1792C125.431 81.1792 127.828 80.21 129.677 78.2718C131.56 76.3336 132.501 73.6905 132.501 70.3426Z" fill="url(#paint1_linear_1_295)"/>
<path d="M70.2053 97.5C65.7543 97.5 61.7998 96.2666 58.3418 93.7997C54.918 91.3329 52.2303 88.0511 50.2787 83.9544C48.3614 79.8136 47.4027 75.2763 47.4027 70.3426L47.5054 27.4591C47.5054 22.4373 48.4812 17.9221 50.4328 13.9135C52.3501 9.86081 55.0207 6.62307 58.4445 4.20027C61.8683 1.73342 65.7886 0.5 70.2053 0.5C74.7247 0.5 78.6621 1.7114 82.0174 4.1342C85.3727 6.55699 88.0091 9.81676 89.9264 13.9135C91.878 17.9662 92.8538 22.4814 92.8538 27.4591L92.9565 70.3426C92.9565 75.2323 91.9978 79.7475 90.0805 83.8883C88.1289 88.0291 85.4412 91.3329 82.0174 93.7997C78.6278 96.2666 74.6905 97.5 70.2053 97.5ZM80.2199 70.3426L80.1172 27.4591C80.1172 24.2875 79.1928 21.7105 77.3439 19.7282C75.5293 17.7459 73.1498 16.7548 70.2053 16.7548C67.1923 16.7548 64.7785 17.7459 62.9639 19.7282C61.1493 21.7105 60.242 24.2875 60.242 27.4591V70.3426C60.242 73.6905 61.1493 76.3336 62.9639 78.2718C64.7785 80.21 67.1923 81.1792 70.2053 81.1792C73.1498 81.1792 75.5464 80.21 77.3953 78.2718C79.2784 76.3336 80.2199 73.6905 80.2199 70.3426Z" fill="url(#paint2_linear_1_295)"/>
<path d="M40.1614 96.1785H0.92455C0.582169 96.1785 0.410979 95.9582 0.410979 95.5177V80.188C0.410979 80.0118 0.479455 79.8356 0.616407 79.6594L26.6031 33.8025C27.0824 32.9655 27.4762 31.9083 27.7843 30.6308C28.1267 29.3093 28.2979 28.1639 28.2979 27.1948C28.2979 24.5518 27.5618 22.129 26.0895 19.9264C24.6173 17.7239 22.7513 16.6226 20.4916 16.6226C18.3346 16.6226 16.5029 17.6798 14.9964 19.7943C13.4899 21.9087 12.7367 24.5958 12.7367 27.8556V34.4632C12.7367 34.9037 12.5655 35.124 12.2231 35.124H0.410979C0.137074 35.124 0.00012207 34.9037 0.00012207 34.4632V27.8556C0.00012207 22.7897 0.975907 18.1864 2.92748 14.0456C4.84481 9.90486 7.36131 6.62307 10.477 4.20027C13.5926 1.73342 16.9308 0.5 20.4916 0.5C24.2578 0.5 27.6987 1.73342 30.8144 4.20027C33.8958 6.71117 36.361 9.99296 38.2098 14.0456C40.0929 18.0983 41.0344 22.4814 41.0344 27.1948C41.0344 30.1462 40.6236 33.1637 39.8019 36.2473C39.0144 39.2868 37.9188 41.9959 36.515 44.3747L16.5371 79.6594H40.1614C40.4695 79.6594 40.6236 79.8356 40.6236 80.188V95.5177C40.6236 95.9582 40.4695 96.1785 40.1614 96.1785Z" fill="url(#paint3_linear_1_295)"/>
</g>
<defs>
<linearGradient id="paint0_linear_1_295" x1="0.00012108" y1="97.5" x2="203.663" y2="35.5639" gradientUnits="userSpaceOnUse">
<stop offset="0.0226" stop-color="#8636F8"/>
<stop offset="0.3484" stop-color="#F020B3"/>
<stop offset="0.6742" stop-color="#F8475E"/>
<stop offset="1" stop-color="#FF9421"/>
</linearGradient>
<linearGradient id="paint1_linear_1_295" x1="0.00012108" y1="97.5" x2="203.663" y2="35.5639" gradientUnits="userSpaceOnUse">
<stop offset="0.0226" stop-color="#8636F8"/>
<stop offset="0.3484" stop-color="#F020B3"/>
<stop offset="0.6742" stop-color="#F8475E"/>
<stop offset="1" stop-color="#FF9421"/>
</linearGradient>
<linearGradient id="paint2_linear_1_295" x1="0.00012108" y1="97.5" x2="203.663" y2="35.5639" gradientUnits="userSpaceOnUse">
<stop offset="0.0226" stop-color="#8636F8"/>
<stop offset="0.3484" stop-color="#F020B3"/>
<stop offset="0.6742" stop-color="#F8475E"/>
<stop offset="1" stop-color="#FF9421"/>
</linearGradient>
<linearGradient id="paint3_linear_1_295" x1="0.00012108" y1="97.5" x2="203.663" y2="35.5639" gradientUnits="userSpaceOnUse">
<stop offset="0.0226" stop-color="#8636F8"/>
<stop offset="0.3484" stop-color="#F020B3"/>
<stop offset="0.6742" stop-color="#F8475E"/>
<stop offset="1" stop-color="#FF9421"/>
</linearGradient>
</defs>
</svg>
