<svg width="193" height="83" viewBox="0 0 193 83" fill="none" xmlns="http://www.w3.org/2000/svg">
<path d="M176.36 78.8665H167.527C167.184 78.8665 167.013 78.6462 167.013 78.2057V53.9557H152.068C151.658 53.9557 151.452 53.7355 151.452 53.295V42.5906C151.452 42.5025 151.503 42.3483 151.606 42.1281C151.709 41.9078 151.863 41.7977 152.068 41.7977H167.013V17.1512C167.013 16.975 167.184 16.8869 167.527 16.8869H176.36C176.668 16.8869 176.823 16.975 176.823 17.1512V41.7977H192.486C192.829 41.7977 193 42.062 193 42.5906V53.295C193 53.7355 192.829 53.9557 192.486 53.9557H176.823V78.2057C176.823 78.6462 176.668 78.8665 176.36 78.8665Z" fill="url(#paint0_linear_52_150)"/>
<path d="M122.487 97.5C118.036 97.5 114.081 96.2666 110.623 93.7997C107.199 91.3329 104.512 88.0511 102.56 83.9544C100.643 79.8136 99.6841 75.2763 99.6841 70.3426L99.7868 27.4591C99.7868 22.4373 100.763 17.9221 102.714 13.9135C104.632 9.86081 107.302 6.62307 110.726 4.20027C114.15 1.73342 118.07 0.5 122.487 0.5C127.006 0.5 130.943 1.7114 134.299 4.1342C137.654 6.55699 140.29 9.81676 142.208 13.9135C144.159 17.9662 145.135 22.4814 145.135 27.4591L145.238 70.3426C145.238 75.2323 144.279 79.7475 142.362 83.8883C140.41 88.0291 137.723 91.3329 134.299 93.7997C130.909 96.2666 126.972 97.5 122.487 97.5ZM132.501 70.3426L132.399 27.4591C132.399 24.2875 131.474 21.7105 129.625 19.7282C127.811 17.7459 125.431 16.7548 122.487 16.7548C119.474 16.7548 117.06 17.7459 115.245 19.7282C113.431 21.7105 112.523 24.2875 112.523 27.4591V70.3426C112.523 73.6905 113.431 76.3336 115.245 78.2718C117.06 80.21 119.474 81.1792 122.487 81.1792C125.431 81.1792 127.828 80.21 129.677 78.2718C131.56 76.3336 132.501 73.6905 132.501 70.3426Z" fill="url(#paint1_linear_52_150)"/>
<path d="M70.2052 97.5C65.7542 97.5 61.7997 96.2666 58.3417 93.7997C54.9179 91.3329 52.2302 88.0511 50.2786 83.9544C48.3613 79.8136 47.4026 75.2763 47.4026 70.3426L47.5053 27.4591C47.5053 22.4373 48.4811 17.9221 50.4327 13.9135C52.35 9.86081 55.0206 6.62307 58.4444 4.20027C61.8682 1.73342 65.7885 0.5 70.2052 0.5C74.7246 0.5 78.662 1.7114 82.0173 4.1342C85.3726 6.55699 88.009 9.81676 89.9263 13.9135C91.8779 17.9662 92.8536 22.4814 92.8536 27.4591L92.9564 70.3426C92.9564 75.2323 91.9977 79.7475 90.0804 83.8883C88.1288 88.0291 85.4411 91.3329 82.0173 93.7997C78.6277 96.2666 74.6903 97.5 70.2052 97.5ZM80.2198 70.3426L80.1171 27.4591C80.1171 24.2875 79.1927 21.7105 77.3438 19.7282C75.5292 17.7459 73.1496 16.7548 70.2052 16.7548C67.1922 16.7548 64.7784 17.7459 62.9638 19.7282C61.1492 21.7105 60.2419 24.2875 60.2419 27.4591V70.3426C60.2419 73.6905 61.1492 76.3336 62.9638 78.2718C64.7784 80.21 67.1922 81.1792 70.2052 81.1792C73.1496 81.1792 75.5463 80.21 77.3952 78.2718C79.2783 76.3336 80.2198 73.6905 80.2198 70.3426Z" fill="url(#paint2_linear_52_150)"/>
<path d="M40.1613 96.1785H0.924428C0.582047 96.1785 0.410857 95.9582 0.410857 95.5177V80.188C0.410857 80.0118 0.479333 79.8356 0.616285 79.6594L26.603 33.8025C27.0823 32.9655 27.4761 31.9083 27.7842 30.6308C28.1266 29.3093 28.2978 28.1639 28.2978 27.1948C28.2978 24.5518 27.5616 22.129 26.0894 19.9264C24.6172 17.7239 22.7512 16.6226 20.4915 16.6226C18.3345 16.6226 16.5027 17.6798 14.9963 19.7943C13.4898 21.9087 12.7366 24.5958 12.7366 27.8556V34.4632C12.7366 34.9037 12.5654 35.124 12.223 35.124H0.410857C0.136952 35.124 0 34.9037 0 34.4632V27.8556C0 22.7897 0.975785 18.1864 2.92735 14.0456C4.84469 9.90486 7.36119 6.62307 10.4768 4.20027C13.5925 1.73342 16.9307 0.5 20.4915 0.5C24.2577 0.5 27.6986 1.73342 30.8143 4.20027C33.8957 6.71117 36.3608 9.99296 38.2097 14.0456C40.0928 18.0983 41.0343 22.4814 41.0343 27.1948C41.0343 30.1462 40.6235 33.1637 39.8018 36.2473C39.0143 39.2868 37.9187 41.9959 36.5149 44.3747L16.537 79.6594H40.1613C40.4694 79.6594 40.6235 79.8356 40.6235 80.188V95.5177C40.6235 95.9582 40.4694 96.1785 40.1613 96.1785Z" fill="url(#paint3_linear_52_150)"/>
<defs>
<linearGradient id="paint0_linear_52_150" x1="-9.90362e-07" y1="97.5" x2="203.663" y2="35.5639" gradientUnits="userSpaceOnUse">
<stop offset="0.0226" stop-color="#8636F8"/>
<stop offset="0.3484" stop-color="#F020B3"/>
<stop offset="0.6742" stop-color="#F8475E"/>
<stop offset="1" stop-color="#FF9421"/>
</linearGradient>
<linearGradient id="paint1_linear_52_150" x1="-9.90362e-07" y1="97.5" x2="203.663" y2="35.5639" gradientUnits="userSpaceOnUse">
<stop offset="0.0226" stop-color="#8636F8"/>
<stop offset="0.3484" stop-color="#F020B3"/>
<stop offset="0.6742" stop-color="#F8475E"/>
<stop offset="1" stop-color="#FF9421"/>
</linearGradient>
<linearGradient id="paint2_linear_52_150" x1="-9.90362e-07" y1="97.5" x2="203.663" y2="35.5639" gradientUnits="userSpaceOnUse">
<stop offset="0.0226" stop-color="#8636F8"/>
<stop offset="0.3484" stop-color="#F020B3"/>
<stop offset="0.6742" stop-color="#F8475E"/>
<stop offset="1" stop-color="#FF9421"/>
</linearGradient>
<linearGradient id="paint3_linear_52_150" x1="-9.90362e-07" y1="97.5" x2="203.663" y2="35.5639" gradientUnits="userSpaceOnUse">
<stop offset="0.0226" stop-color="#8636F8"/>
<stop offset="0.3484" stop-color="#F020B3"/>
<stop offset="0.6742" stop-color="#F8475E"/>
<stop offset="1" stop-color="#FF9421"/>
</linearGradient>
</defs>
</svg>
