<svg width="167" height="86" viewBox="0 0 167 86" fill="none" xmlns="http://www.w3.org/2000/svg">
<g clip-path="url(#clip0_1_366)">
<path d="M23.4381 91.858H13.8425C13.3433 91.858 13.0936 91.5623 13.0936 90.971L13 2.59571C13 1.91996 13.2496 1.58208 13.7489 1.58208H22.4083L38.6037 52.7067L38.1357 2.59571C38.1357 1.91996 38.4165 1.58208 38.9782 1.58208H48.4801C48.8546 1.58208 49.0418 1.91996 49.0418 2.59571L49.1354 91.0977C49.1354 91.6046 48.9794 91.858 48.6674 91.858H40.242L23.6253 44.0909L24.3274 90.8443C24.3274 91.5201 24.031 91.858 23.4381 91.858Z" fill="url(#paint0_linear_1_366)"/>
<path d="M75.2073 93.125C71.8059 93.125 68.6698 91.9424 65.7989 89.5773C62.9593 87.2122 60.6657 84.0657 58.9182 80.1379C57.2019 76.1679 56.3438 71.8178 56.3438 67.0875L56.4374 25.9724C56.4374 21.1577 57.2956 16.8287 59.0118 12.9854C60.6969 9.0998 62.9749 5.99557 65.8457 3.67268C68.7166 1.30756 71.8371 0.125 75.2073 0.125C78.7022 0.125 81.8383 1.28644 84.6156 3.60933C87.424 5.93222 89.6708 9.05756 91.3559 12.9854C93.0722 16.8709 93.9303 21.1999 93.9303 25.9724L94.0239 67.0875C94.0239 71.8178 93.1814 76.1468 91.4963 80.0746C89.78 84.0446 87.502 87.2122 84.6624 89.5773C81.8227 91.9424 78.671 93.125 75.2073 93.125ZM75.2073 77.4772C77.142 77.4772 78.827 76.4213 80.2625 74.3096C81.6979 72.1557 82.4156 69.7483 82.4156 67.0875L82.322 25.9724C82.322 23.1005 81.6511 20.672 80.3093 18.687C78.9675 16.702 77.2668 15.7095 75.2073 15.7095C73.2413 15.7095 71.5563 16.6809 70.152 18.6236C68.7478 20.5664 68.0457 23.016 68.0457 25.9724V67.0875C68.0457 69.9172 68.7478 72.3668 70.152 74.4363C71.5563 76.4636 73.2413 77.4772 75.2073 77.4772Z" fill="url(#paint1_linear_1_366)"/>
<path d="M119.768 91.858H108.16C107.879 91.858 107.723 91.6468 107.692 91.2244L96.3643 2.0889C96.3019 1.75102 96.3955 1.58208 96.6451 1.58208H107.411C107.661 1.58208 107.817 1.75102 107.879 2.0889L114.011 60.689L120.33 2.0889C120.392 1.75102 120.579 1.58208 120.891 1.58208H129.551C129.8 1.58208 129.957 1.75102 130.019 2.0889L136.244 60.689L142.47 2.0889C142.532 1.75102 142.688 1.58208 142.938 1.58208H153.61C153.922 1.58208 154.047 1.75102 153.984 2.0889L142.563 91.2244C142.532 91.3934 142.439 91.5412 142.283 91.6679L142.095 91.858H130.487C130.3 91.858 130.144 91.6468 130.019 91.2244L125.104 44.6611L120.236 91.2244C120.205 91.6468 120.049 91.858 119.768 91.858Z" fill="url(#paint2_linear_1_366)"/>
</g>
<defs>
<linearGradient id="paint0_linear_1_366" x1="13" y1="93.125" x2="167.267" y2="57.3768" gradientUnits="userSpaceOnUse">
<stop offset="0.0226" stop-color="#8636F8"/>
<stop offset="0.3484" stop-color="#F020B3"/>
<stop offset="0.6742" stop-color="#F8475E"/>
<stop offset="1" stop-color="#FF9421"/>
</linearGradient>
<linearGradient id="paint1_linear_1_366" x1="13" y1="93.125" x2="167.267" y2="57.3768" gradientUnits="userSpaceOnUse">
<stop offset="0.0226" stop-color="#8636F8"/>
<stop offset="0.3484" stop-color="#F020B3"/>
<stop offset="0.6742" stop-color="#F8475E"/>
<stop offset="1" stop-color="#FF9421"/>
</linearGradient>
<linearGradient id="paint2_linear_1_366" x1="13" y1="93.125" x2="167.267" y2="57.3768" gradientUnits="userSpaceOnUse">
<stop offset="0.0226" stop-color="#8636F8"/>
<stop offset="0.3484" stop-color="#F020B3"/>
<stop offset="0.6742" stop-color="#F8475E"/>
<stop offset="1" stop-color="#FF9421"/>
</linearGradient>
<clipPath id="clip0_1_366">
<rect width="167" height="85" fill="white" transform="translate(0 0.125)"/>
</clipPath>
</defs>
</svg>
